# xmcd
#
# Track frame offsets:
# 150
# 21745
# 47227
# 82675
# 112232
# 138735
# 158482
# 186602
# 207495
# 231715
# 262635
# 281162
# 310632
#
# Disc length: 4387 seconds
#
#
# Revision: 0
# Processed by: cddbd v1.4PL0 Copyright (c) Steve Scherf et al.
# Submitted via: FreeRIP 2.35 
#
DISCID=c311210d
DTITLE=Willie Kent - Make Room For The Blues
DYEAR=1900
DGENRE=Blues
TTITLE0=Do You Love Me?
TTITLE1=Saturday Night
TTITLE2=I Had A Dream
TTITLE3=Make Room For The Blues
TTITLE4=Teach Me How To Lie
TTITLE5=3-6-9
TTITLE6=Help Me Make It
TTITLE7=Address In The Street
TTITLE8=I'm Hooked
TTITLE9=I'm What You Need
TTITLE10=Me And My Baby
TTITLE11=I Know Where I've Been
TTITLE12=Somebody Else
EXTD=
EXTT0=
EXTT1=
EXTT2=
EXTT3=
EXTT4=
EXTT5=
EXTT6=
EXTT7=
EXTT8=
EXTT9=
EXTT10=
EXTT11=
EXTT12=
PLAYORDER=
